<mxfile host="app.diagrams.net" modified="2022-11-08T12:25:15.131Z" agent="5.0 (Windows NT 10.0; Win64; x64) AppleWebKit/537.36 (KHTML, like Gecko) Chrome/107.0.0.0 Safari/537.36" etag="4vttT0R3Q3xZuscFHe7K" version="20.4.0" type="github">
  <diagram id="zDz5KXU1ilkDI3mzD7FR" name="Страница 1">
    <mxGraphModel dx="1781" dy="526" grid="0" gridSize="10" guides="1" tooltips="1" connect="1" arrows="1" fold="1" page="0" pageScale="1" pageWidth="827" pageHeight="1169" math="0" shadow="0">
      <root>
        <mxCell id="0" />
        <mxCell id="1" parent="0" />
        <mxCell id="JRCoZRqmIjoLXt7h-6Ds-4" style="edgeStyle=orthogonalEdgeStyle;rounded=0;orthogonalLoop=1;jettySize=auto;html=1;entryX=0.5;entryY=0;entryDx=0;entryDy=0;" edge="1" parent="1" source="JRCoZRqmIjoLXt7h-6Ds-1" target="JRCoZRqmIjoLXt7h-6Ds-2">
          <mxGeometry relative="1" as="geometry" />
        </mxCell>
        <mxCell id="JRCoZRqmIjoLXt7h-6Ds-48" value="include" style="edgeLabel;html=1;align=center;verticalAlign=middle;resizable=0;points=[];" vertex="1" connectable="0" parent="JRCoZRqmIjoLXt7h-6Ds-4">
          <mxGeometry x="-0.4482" y="-3" relative="1" as="geometry">
            <mxPoint as="offset" />
          </mxGeometry>
        </mxCell>
        <mxCell id="JRCoZRqmIjoLXt7h-6Ds-5" style="edgeStyle=orthogonalEdgeStyle;rounded=0;orthogonalLoop=1;jettySize=auto;html=1;entryX=0.5;entryY=0;entryDx=0;entryDy=0;" edge="1" parent="1" source="JRCoZRqmIjoLXt7h-6Ds-1" target="JRCoZRqmIjoLXt7h-6Ds-3">
          <mxGeometry relative="1" as="geometry" />
        </mxCell>
        <mxCell id="JRCoZRqmIjoLXt7h-6Ds-49" value="include" style="edgeLabel;html=1;align=center;verticalAlign=middle;resizable=0;points=[];" vertex="1" connectable="0" parent="JRCoZRqmIjoLXt7h-6Ds-5">
          <mxGeometry x="-0.5805" y="2" relative="1" as="geometry">
            <mxPoint as="offset" />
          </mxGeometry>
        </mxCell>
        <mxCell id="JRCoZRqmIjoLXt7h-6Ds-1" value="Генератор&lt;br&gt;тестов" style="rounded=0;whiteSpace=wrap;html=1;fillColor=#f8cecc;strokeColor=#b85450;" vertex="1" parent="1">
          <mxGeometry x="267" y="64" width="120" height="60" as="geometry" />
        </mxCell>
        <mxCell id="JRCoZRqmIjoLXt7h-6Ds-6" style="edgeStyle=orthogonalEdgeStyle;rounded=0;orthogonalLoop=1;jettySize=auto;html=1;" edge="1" parent="1" source="JRCoZRqmIjoLXt7h-6Ds-2" target="JRCoZRqmIjoLXt7h-6Ds-7">
          <mxGeometry relative="1" as="geometry">
            <mxPoint x="-298.71428571428567" y="523.2857142857143" as="targetPoint" />
          </mxGeometry>
        </mxCell>
        <mxCell id="JRCoZRqmIjoLXt7h-6Ds-2" value="Генератор" style="rounded=0;whiteSpace=wrap;html=1;fillColor=#d5e8d4;strokeColor=#82b366;" vertex="1" parent="1">
          <mxGeometry x="-433" y="258" width="260" height="150" as="geometry" />
        </mxCell>
        <mxCell id="JRCoZRqmIjoLXt7h-6Ds-26" style="edgeStyle=orthogonalEdgeStyle;rounded=0;orthogonalLoop=1;jettySize=auto;html=1;entryX=0.5;entryY=0;entryDx=0;entryDy=0;" edge="1" parent="1" source="JRCoZRqmIjoLXt7h-6Ds-3" target="JRCoZRqmIjoLXt7h-6Ds-27">
          <mxGeometry relative="1" as="geometry">
            <mxPoint x="823.333333333333" y="507.44444444444434" as="targetPoint" />
          </mxGeometry>
        </mxCell>
        <mxCell id="JRCoZRqmIjoLXt7h-6Ds-35" style="edgeStyle=orthogonalEdgeStyle;rounded=0;orthogonalLoop=1;jettySize=auto;html=1;entryX=0.5;entryY=0;entryDx=0;entryDy=0;" edge="1" parent="1" source="JRCoZRqmIjoLXt7h-6Ds-3" target="JRCoZRqmIjoLXt7h-6Ds-36">
          <mxGeometry relative="1" as="geometry">
            <mxPoint x="950" y="539.6666666666667" as="targetPoint" />
            <Array as="points">
              <mxPoint x="950" y="472" />
              <mxPoint x="1308" y="472" />
            </Array>
          </mxGeometry>
        </mxCell>
        <mxCell id="JRCoZRqmIjoLXt7h-6Ds-3" value="Сайт" style="rounded=0;whiteSpace=wrap;html=1;fillColor=#dae8fc;strokeColor=#6c8ebf;" vertex="1" parent="1">
          <mxGeometry x="820" y="258" width="260" height="150" as="geometry" />
        </mxCell>
        <mxCell id="JRCoZRqmIjoLXt7h-6Ds-24" style="edgeStyle=orthogonalEdgeStyle;rounded=0;orthogonalLoop=1;jettySize=auto;html=1;exitX=1;exitY=0.5;exitDx=0;exitDy=0;entryX=0;entryY=0.5;entryDx=0;entryDy=0;" edge="1" parent="1" source="JRCoZRqmIjoLXt7h-6Ds-7" target="JRCoZRqmIjoLXt7h-6Ds-22">
          <mxGeometry relative="1" as="geometry" />
        </mxCell>
        <mxCell id="JRCoZRqmIjoLXt7h-6Ds-7" value="Обработка текста" style="rounded=0;whiteSpace=wrap;html=1;fillColor=#fff2cc;strokeColor=#d6b656;" vertex="1" parent="1">
          <mxGeometry x="-508.5" y="674" width="120" height="60" as="geometry" />
        </mxCell>
        <mxCell id="JRCoZRqmIjoLXt7h-6Ds-63" style="edgeStyle=orthogonalEdgeStyle;rounded=0;orthogonalLoop=1;jettySize=auto;html=1;entryX=0;entryY=0.5;entryDx=0;entryDy=0;" edge="1" parent="1" source="JRCoZRqmIjoLXt7h-6Ds-22" target="JRCoZRqmIjoLXt7h-6Ds-27">
          <mxGeometry relative="1" as="geometry">
            <Array as="points">
              <mxPoint x="-158" y="615" />
              <mxPoint x="308" y="615" />
              <mxPoint x="308" y="565" />
            </Array>
          </mxGeometry>
        </mxCell>
        <mxCell id="JRCoZRqmIjoLXt7h-6Ds-22" value="Генерация&lt;br&gt;тестов" style="rounded=0;whiteSpace=wrap;html=1;fillColor=#d5e8d4;strokeColor=#82b366;" vertex="1" parent="1">
          <mxGeometry x="-217.5" y="674" width="120" height="60" as="geometry" />
        </mxCell>
        <mxCell id="JRCoZRqmIjoLXt7h-6Ds-25" value="Результат обработки" style="text;html=1;align=center;verticalAlign=middle;resizable=0;points=[];autosize=1;strokeColor=none;fillColor=none;" vertex="1" parent="1">
          <mxGeometry x="-376.5" y="679" width="134" height="26" as="geometry" />
        </mxCell>
        <mxCell id="JRCoZRqmIjoLXt7h-6Ds-33" style="edgeStyle=orthogonalEdgeStyle;rounded=0;orthogonalLoop=1;jettySize=auto;html=1;exitX=0.5;exitY=1;exitDx=0;exitDy=0;entryX=0.5;entryY=0;entryDx=0;entryDy=0;" edge="1" parent="1" source="JRCoZRqmIjoLXt7h-6Ds-27" target="JRCoZRqmIjoLXt7h-6Ds-34">
          <mxGeometry relative="1" as="geometry">
            <mxPoint x="642.2222222222222" y="678.5555555555554" as="targetPoint" />
            <Array as="points">
              <mxPoint x="773" y="623" />
              <mxPoint x="604" y="623" />
            </Array>
          </mxGeometry>
        </mxCell>
        <mxCell id="JRCoZRqmIjoLXt7h-6Ds-50" style="edgeStyle=orthogonalEdgeStyle;rounded=0;orthogonalLoop=1;jettySize=auto;html=1;" edge="1" parent="1" source="JRCoZRqmIjoLXt7h-6Ds-27" target="JRCoZRqmIjoLXt7h-6Ds-40">
          <mxGeometry relative="1" as="geometry" />
        </mxCell>
        <mxCell id="JRCoZRqmIjoLXt7h-6Ds-56" style="edgeStyle=orthogonalEdgeStyle;rounded=0;orthogonalLoop=1;jettySize=auto;html=1;" edge="1" parent="1" source="JRCoZRqmIjoLXt7h-6Ds-27" target="JRCoZRqmIjoLXt7h-6Ds-55">
          <mxGeometry relative="1" as="geometry">
            <Array as="points">
              <mxPoint x="773" y="623" />
              <mxPoint x="942" y="623" />
            </Array>
          </mxGeometry>
        </mxCell>
        <mxCell id="JRCoZRqmIjoLXt7h-6Ds-60" style="edgeStyle=orthogonalEdgeStyle;rounded=0;orthogonalLoop=1;jettySize=auto;html=1;entryX=0.5;entryY=0;entryDx=0;entryDy=0;" edge="1" parent="1" source="JRCoZRqmIjoLXt7h-6Ds-27" target="JRCoZRqmIjoLXt7h-6Ds-58">
          <mxGeometry relative="1" as="geometry">
            <Array as="points">
              <mxPoint x="773" y="622" />
              <mxPoint x="442" y="622" />
            </Array>
          </mxGeometry>
        </mxCell>
        <mxCell id="JRCoZRqmIjoLXt7h-6Ds-27" value="Модуль с тестами" style="rounded=0;whiteSpace=wrap;html=1;fillColor=#ffe6cc;strokeColor=#d79b00;" vertex="1" parent="1">
          <mxGeometry x="713" y="535" width="120" height="60" as="geometry" />
        </mxCell>
        <mxCell id="JRCoZRqmIjoLXt7h-6Ds-32" value="Передача тестов в виде объектов через JNI" style="text;html=1;align=center;verticalAlign=middle;resizable=0;points=[];autosize=1;strokeColor=none;fillColor=none;" vertex="1" parent="1">
          <mxGeometry x="341" y="541" width="263" height="26" as="geometry" />
        </mxCell>
        <mxCell id="JRCoZRqmIjoLXt7h-6Ds-34" value="Редактор вопросов&lt;br&gt;и тестов" style="rounded=0;whiteSpace=wrap;html=1;" vertex="1" parent="1">
          <mxGeometry x="544" y="674" width="120" height="60" as="geometry" />
        </mxCell>
        <mxCell id="JRCoZRqmIjoLXt7h-6Ds-67" style="edgeStyle=orthogonalEdgeStyle;rounded=0;orthogonalLoop=1;jettySize=auto;html=1;entryX=0.5;entryY=0;entryDx=0;entryDy=0;" edge="1" parent="1" source="JRCoZRqmIjoLXt7h-6Ds-36" target="JRCoZRqmIjoLXt7h-6Ds-68">
          <mxGeometry relative="1" as="geometry">
            <mxPoint x="1308" y="661.5862068965519" as="targetPoint" />
          </mxGeometry>
        </mxCell>
        <mxCell id="JRCoZRqmIjoLXt7h-6Ds-71" style="edgeStyle=orthogonalEdgeStyle;rounded=0;orthogonalLoop=1;jettySize=auto;html=1;" edge="1" parent="1" source="JRCoZRqmIjoLXt7h-6Ds-36" target="JRCoZRqmIjoLXt7h-6Ds-70">
          <mxGeometry relative="1" as="geometry" />
        </mxCell>
        <mxCell id="JRCoZRqmIjoLXt7h-6Ds-36" value="Модуль пользователя" style="rounded=0;whiteSpace=wrap;html=1;fillColor=#e1d5e7;strokeColor=#9673a6;" vertex="1" parent="1">
          <mxGeometry x="1248" y="535" width="120" height="60" as="geometry" />
        </mxCell>
        <mxCell id="JRCoZRqmIjoLXt7h-6Ds-40" value="Генерация страницы&lt;br&gt;с тестом" style="rounded=0;whiteSpace=wrap;html=1;" vertex="1" parent="1">
          <mxGeometry x="713" y="674" width="120" height="60" as="geometry" />
        </mxCell>
        <mxCell id="JRCoZRqmIjoLXt7h-6Ds-55" value="Генерация страницы&lt;br&gt;с тестом" style="rounded=0;whiteSpace=wrap;html=1;" vertex="1" parent="1">
          <mxGeometry x="882" y="674" width="120" height="60" as="geometry" />
        </mxCell>
        <mxCell id="JRCoZRqmIjoLXt7h-6Ds-62" style="edgeStyle=orthogonalEdgeStyle;rounded=0;orthogonalLoop=1;jettySize=auto;html=1;entryX=1;entryY=0.5;entryDx=0;entryDy=0;startArrow=none;" edge="1" parent="1" source="JRCoZRqmIjoLXt7h-6Ds-65" target="JRCoZRqmIjoLXt7h-6Ds-2">
          <mxGeometry relative="1" as="geometry" />
        </mxCell>
        <mxCell id="JRCoZRqmIjoLXt7h-6Ds-58" value="Загрузка файлов&lt;br&gt;с текстом" style="rounded=0;whiteSpace=wrap;html=1;" vertex="1" parent="1">
          <mxGeometry x="382" y="674" width="120" height="60" as="geometry" />
        </mxCell>
        <mxCell id="JRCoZRqmIjoLXt7h-6Ds-65" value="Любой файл текстового формата(word, docx, txt, ...)&lt;br&gt;" style="text;html=1;align=center;verticalAlign=middle;resizable=0;points=[];autosize=1;strokeColor=none;fillColor=none;" vertex="1" parent="1">
          <mxGeometry x="-84" y="458" width="306" height="26" as="geometry" />
        </mxCell>
        <mxCell id="JRCoZRqmIjoLXt7h-6Ds-66" value="" style="edgeStyle=orthogonalEdgeStyle;rounded=0;orthogonalLoop=1;jettySize=auto;html=1;entryX=1;entryY=0.5;entryDx=0;entryDy=0;endArrow=none;" edge="1" parent="1" source="JRCoZRqmIjoLXt7h-6Ds-58" target="JRCoZRqmIjoLXt7h-6Ds-65">
          <mxGeometry relative="1" as="geometry">
            <mxPoint x="382" y="704.0000000000002" as="sourcePoint" />
            <mxPoint x="-173" y="333" as="targetPoint" />
            <Array as="points">
              <mxPoint x="288" y="704" />
              <mxPoint x="288" y="471" />
            </Array>
          </mxGeometry>
        </mxCell>
        <mxCell id="JRCoZRqmIjoLXt7h-6Ds-68" value="Аутентификация и тд" style="rounded=0;whiteSpace=wrap;html=1;" vertex="1" parent="1">
          <mxGeometry x="1128" y="679" width="120" height="60" as="geometry" />
        </mxCell>
        <mxCell id="JRCoZRqmIjoLXt7h-6Ds-70" value="Просмотр результатов" style="rounded=0;whiteSpace=wrap;html=1;" vertex="1" parent="1">
          <mxGeometry x="1286" y="679" width="120" height="60" as="geometry" />
        </mxCell>
      </root>
    </mxGraphModel>
  </diagram>
</mxfile>
